HIERARCHY
ROOT Hips
{
 OFFSET 0.000000 0.000000 0.000000
 CHANNELS 6 Xposition Yposition Zposition Yrotation Xrotation Zrotation
 JOINT Chest
 {
  OFFSET 0.000000 9.581000 -0.001100
  CHANNELS 3 Yrotation Xrotation Zrotation
  JOINT Chest2
  {
   OFFSET 0.000000 9.561100 0.002200
   CHANNELS 3 Yrotation Xrotation Zrotation
   JOINT Chest3
   {
    OFFSET 0.000000 9.521100 0.000000
    CHANNELS 3 Yrotation Xrotation Zrotation
    JOINT Chest4
    {
     OFFSET 0.000000 9.511400 0.000000
     CHANNELS 3 Yrotation Xrotation Zrotation
     JOINT Neck
     {
      OFFSET 0.000000 14.375100 0.000000
      CHANNELS 3 Yrotation Xrotation Zrotation
      JOINT Head
      {
       OFFSET 0.000000 8.901200 0.004600
       CHANNELS 3 Yrotation Xrotation Zrotation
       End Site
       {
        OFFSET 0.000000 16.962200 0.002400
       }
      }
     }
     JOINT RightCollar
     {
      OFFSET -2.920100 9.518800 0.000000
      CHANNELS 3 Yrotation Xrotation Zrotation
      JOINT RightShoulder
      {
       OFFSET -13.664500 0.000000 0.000000
       CHANNELS 3 Yrotation Xrotation Zrotation
       JOINT RightElbow
       {
        OFFSET 0.000000 -29.999200 0.000000
        CHANNELS 3 Yrotation Xrotation Zrotation
        JOINT RightWrist
        {
         OFFSET 0.000000 -24.253600 0.000000
         CHANNELS 3 Yrotation Xrotation Zrotation
         End Site
         {
          OFFSET 0.000000 -17.918900 0.000000
         }
        }
       }
      }
     }
     JOINT LeftCollar
     {
      OFFSET 2.920100 9.518800 0.000000
      CHANNELS 3 Yrotation Xrotation Zrotation
      JOINT LeftShoulder
      {
       OFFSET 13.664500 0.000000 0.000000
       CHANNELS 3 Yrotation Xrotation Zrotation
       JOINT LeftElbow
       {
        OFFSET 0.000000 -29.999200 0.000000
        CHANNELS 3 Yrotation Xrotation Zrotation
        JOINT LeftWrist
        {
         OFFSET 0.000000 -24.253600 0.000000
         CHANNELS 3 Yrotation Xrotation Zrotation
         End Site
         {
          OFFSET 0.000000 -17.918900 0.000000
         }
        }
       }
      }
     }
    }
   }
  }
 }
 JOINT RightHip
 {
  OFFSET -7.797300 0.005300 0.000500
  CHANNELS 3 Yrotation Xrotation Zrotation
  JOINT RightKnee
  {
   OFFSET 0.000000 -40.663400 -0.000500
   CHANNELS 3 Yrotation Xrotation Zrotation
   JOINT RightAnkle
   {
    OFFSET 0.000000 -39.523700 -0.000900
    CHANNELS 3 Yrotation Xrotation Zrotation
    JOINT RightToe
    {
     OFFSET 0.000000 -6.418000 14.485300
     CHANNELS 3 Yrotation Xrotation Zrotation
     End Site
     {
      OFFSET 0.000000 -1.465200 6.326400
     }
    }
   }
  }
 }
 JOINT LeftHip
 {
  OFFSET 7.797300 0.005300 0.000500
  CHANNELS 3 Yrotation Xrotation Zrotation
  JOINT LeftKnee
  {
   OFFSET 0.000000 -40.663400 -0.000500
   CHANNELS 3 Yrotation Xrotation Zrotation
   JOINT LeftAnkle
   {
    OFFSET 0.000000 -39.523700 -0.000900
    CHANNELS 3 Yrotation Xrotation Zrotation
    JOINT LeftToe
    {
     OFFSET 0.000000 -6.418000 14.485300
     CHANNELS 3 Yrotation Xrotation Zrotation
     End Site
     {
      OFFSET 0.000000 -1.465200 6.326400
     }
    }
   }
  }
 }
}
MOTION
Frames: 15
Frame Time: 0.008333
-13.399643 126.912431 32.500594 -160.283522 -50.800278 -3.088778 -3.820660 26.999958 -0.407564 -0.619173 4.689753 0.061105 -0.998359 7.416029 0.072344 -3.045467 22.011553 -0.181068 -3.240063 16.758603 -5.487402 -2.206546 -7.968899 -5.129959 1.577738 2.840505 1.501356 2.331630 -9.899877 -10.262530 -94.898873 -69.420278 142.290865 17.197339 26.502511 12.230604 -9.247299 -0.729822 -0.370238 -2.415321 -5.782294 8.926969 62.287758 -59.043230 -106.065260 -2.210546 -11.593111 9.990799 -6.371385 -22.261471 -11.185775 -10.345581 78.668398 -11.710205 9.791335 -14.554023 3.890534 0.000417 -0.004153 0.000185 4.432535 5.998002 -1.762038 128.937400 64.869660 147.301110 10.789059 11.130023 3.519304 -0.001877 0.024485 -0.000832
-13.398636 126.912117 32.500801 -160.285635 -50.797935 -3.084699 -3.807941 27.001545 -0.404877 -0.616910 4.691492 0.063940 -0.994283 7.417975 0.072610 -3.046987 22.010096 -0.179262 -3.153195 16.608244 -5.422998 -2.140350 -8.141109 -5.068845 1.588774 2.823422 1.504989 2.326376 -9.877803 -10.257135 -94.668283 -69.355202 142.106980 16.819732 26.047917 11.691675 -9.246009 -0.756787 -0.346301 -2.403917 -5.768832 8.926727 62.255433 -59.268942 -105.964124 -2.467895 -11.375193 9.934005 -6.370481 -22.264037 -11.189597 -10.364236 78.678459 -11.725641 9.805491 -14.621320 3.875334 0.000630 -0.005584 0.000279 4.427330 5.996488 -1.767860 128.947525 64.870685 147.305210 10.777157 11.104690 3.582544 -0.000950 0.016431 -0.000421
-13.398358 126.910879 32.502052 -160.285887 -50.788996 -3.075401 -3.789700 27.001732 -0.397865 -0.625802 4.687619 0.060792 -0.990487 7.419116 0.072550 -3.046382 22.008470 -0.176841 -3.067035 16.462686 -5.360875 -2.071155 -8.306600 -5.010419 1.622765 2.796351 1.502381 2.300736 -9.846020 -10.246246 -94.416599 -69.281640 141.899003 16.436086 25.589143 11.152295 -9.242992 -0.785837 -0.330085 -2.410369 -5.775129 8.959123 62.188135 -59.435197 -105.849948 -2.739917 -11.152131 9.886729 -6.373662 -22.277708 -11.201500 -10.371633 78.691287 -11.734477 9.828867 -14.680242 3.859491 0.001274 -0.006561 0.000565 4.422832 5.992253 -1.781515 128.947052 64.870413 147.299439 10.723354 11.024824 3.762267 0.003597 -0.007489 0.001593
-13.397990 126.910273 32.502783 -160.293726 -50.785485 -3.061664 -3.779350 27.002521 -0.398204 -0.623761 4.688385 0.060659 -0.987250 7.420263 0.072401 -3.015634 22.016694 -0.177416 -3.003106 16.312391 -5.286940 -1.998184 -8.466836 -4.956719 1.602309 2.766843 1.512805 2.306603 -9.822123 -10.235535 -94.143070 -69.201807 141.665496 16.050050 25.131794 10.619487 -9.270971 -0.819257 -0.294358 -2.446830 -5.779920 8.967904 62.116902 -59.598478 -105.724811 -3.021346 -10.909541 9.830280 -6.372912 -22.285445 -11.211799 -10.433848 78.704321 -11.788729 9.839940 -14.734888 3.835581 0.002089 -0.005826 0.000926 4.424259 5.992870 -1.790799 128.944103 64.871697 147.292652 10.701082 10.988477 3.840151 0.004864 -0.016257 0.002155
-13.398491 126.909894 32.503639 -160.310408 -50.784239 -3.036339 -3.767377 27.004675 -0.403782 -0.624169 4.688012 0.059406 -0.982615 7.423223 0.073401 -3.021743 22.011299 -0.179363 -2.907489 16.178816 -5.230849 -1.921046 -8.622609 -4.909433 1.610978 2.754166 1.510692 2.322266 -9.803530 -10.224726 -93.859214 -69.119826 141.417051 15.666172 24.680649 10.101092 -9.256353 -0.872355 -0.263530 -2.514946 -5.761325 8.970536 62.038455 -59.730372 -105.593446 -3.295736 -10.642045 9.736864 -6.367617 -22.295279 -11.219575 -10.446714 78.713929 -11.807020 9.823075 -14.767940 3.825204 -0.001473 -0.005068 -0.000653 4.423479 5.996070 -1.807787 128.939390 64.872664 147.277989 10.700623 10.984456 3.847860 0.003687 -0.015528 0.001633
-13.397508 126.910075 32.503657 -160.310138 -50.786399 -3.035074 -3.761141 27.010202 -0.397400 -0.629000 4.686015 0.055740 -0.979430 7.425478 0.074430 -3.007491 22.018518 -0.176703 -2.823429 16.039703 -5.174703 -1.840274 -8.773092 -4.867818 1.610113 2.727606 1.506759 2.319751 -9.785052 -10.213093 -93.563832 -69.032884 141.169169 15.291310 24.237970 9.605233 -9.270258 -0.896526 -0.253615 -2.585621 -5.770498 8.990059 61.954033 -59.850231 -105.462455 -3.546620 -10.345186 9.579910 -6.374019 -22.298605 -11.219099 -10.467339 78.725240 -11.827393 9.820299 -14.785525 3.815448 -0.002677 -0.002121 -0.001186 4.418606 5.999280 -1.809687 128.928711 64.871946 147.267571 10.699651 10.997175 3.824859 0.004552 -0.015747 0.002016
-13.396806 126.910251 32.503791 -160.320165 -50.789082 -3.025243 -3.750294 27.013491 -0.393695 -0.626123 4.690486 0.056865 -0.982835 7.423324 0.072400 -2.996514 22.024264 -0.174659 -2.736184 15.904564 -5.121112 -1.756195 -8.916473 -4.830546 1.615325 2.697859 1.499071 2.314778 -9.762055 -10.197608 -93.289184 -68.949215 140.936779 14.933095 23.805256 9.132776 -9.280356 -0.919158 -0.246756 -2.678593 -5.780964 9.008429 61.849281 -59.950011 -105.312181 -3.765630 -10.012521 9.351729 -6.372023 -22.299556 -11.220953 -10.464248 78.730995 -11.822769 9.833128 -14.812802 3.795895 -0.000487 -0.003651 -0.000216 4.422668 6.000274 -1.811022 128.930953 64.876245 147.272524 10.736536 11.057292 3.702648 0.002922 -0.003912 0.001294
-13.396459 126.910940 32.503611 -160.327203 -50.795649 -3.017792 -3.744930 27.019614 -0.394358 -0.619955 4.691448 0.060996 -0.981377 7.424950 0.073148 -2.991369 22.026593 -0.171907 -2.650380 15.776356 -5.073736 -1.667591 -9.052120 -4.797324 1.614937 2.676144 1.486953 2.321491 -9.743956 -10.181434 -93.043064 -68.869521 140.722217 14.609140 23.386357 8.689057 -9.304424 -0.977753 -0.238696 -2.773543 -5.755224 9.017950 61.708631 -60.019155 -105.140179 -3.937127 -9.646337 9.054409 -6.370489 -22.292669 -11.216544 -10.480477 78.729550 -11.840634 9.828249 -14.836826 3.781492 -0.000620 -0.004984 -0.000275 4.425266 6.005248 -1.811187 128.931457 64.881906 147.274174 10.769637 11.117639 3.590218 0.001226 0.004422 0.000543
-13.395862 126.911583 32.503383 -160.329908 -50.801551 -3.016531 -3.739215 27.023088 -0.392545 -0.619367 4.691817 0.061179 -0.980198 7.425582 0.073466 -2.983016 22.027538 -0.167534 -2.561165 15.658067 -5.025986 -1.574681 -9.182017 -4.766938 1.610225 2.668305 1.481446 2.333125 -9.749448 -10.171624 -92.797360 -68.790956 140.506494 14.353458 22.988107 8.293848 -9.318610 -0.985406 -0.236965 -2.880499 -5.777507 9.034632 61.523964 -60.038817 -104.951434 -4.040593 -9.241096 8.683060 -6.371274 -22.288162 -11.212770 -10.481448 78.728910 -11.843191 9.837132 -14.839331 3.777095 0.000632 -0.003349 0.000280 4.422086 6.012414 -1.812033 128.931157 64.884656 147.268703 10.786786 11.148448 3.535405 -0.001601 0.005710 -0.000710
-13.395368 126.911930 32.503383 -160.334450 -50.805157 -3.013778 -3.733876 27.024713 -0.388615 -0.619333 4.692506 0.061090 -0.979486 7.425902 0.073932 -2.985579 22.028514 -0.169572 -2.462260 15.542807 -4.980296 -1.478569 -9.308167 -4.736549 1.615857 2.659074 1.473351 2.326554 -9.743538 -10.162009 -92.656588 -68.730212 140.397199 14.191829 22.600019 7.979299 -9.329767 -1.017827 -0.237505 -2.976463 -5.778772 9.050447 61.309261 -59.998040 -104.762450 -4.075980 -8.780096 8.243820 -6.369132 -22.285123 -11.211301 -10.415167 78.725061 -11.779214 9.843426 -14.838003 3.771480 0.001108 -0.002373 0.000491 4.421281 6.017737 -1.809468 128.922696 64.885802 147.256719 10.804015 11.183149 3.459737 -0.004449 0.012309 -0.001972
-13.395507 126.911773 32.503938 -160.330120 -50.804581 -3.013714 -3.736886 27.025058 -0.392872 -0.619849 4.691642 0.061902 -0.980209 7.426142 0.074239 -2.986108 22.029138 -0.170886 -2.361248 15.429554 -4.933626 -1.380961 -9.431056 -4.704675 1.627977 2.642747 1.458011 2.314135 -9.740542 -10.144450 -92.587962 -68.710916 140.336108 14.126126 22.214321 7.763587 -9.335912 -1.052400 -0.237138 -3.069166 -5.780292 9.069363 61.072018 -59.910476 -104.581682 -4.038813 -8.272266 7.754233 -6.369657 -22.287516 -11.213484 -10.405561 78.725531 -11.769760 9.845298 -14.838659 3.765432 0.000388 -0.001042 0.000172 4.413690 6.021759 -1.813143 128.916696 64.888389 147.246955 10.792520 11.175591 3.473425 -0.003655 0.007619 -0.001620
-13.395588 126.910993 32.504980 -160.320008 -50.798851 -3.017475 -3.744306 27.020269 -0.397518 -0.620240 4.691491 0.061909 -0.979445 7.426048 0.072866 -2.985172 22.028346 -0.172179 -2.261269 15.321004 -4.882534 -1.284099 -9.550353 -4.671164 1.645704 2.628372 1.438386 2.294312 -9.740514 -10.121753 -92.530315 -68.658021 140.293917 14.185741 21.892392 7.624723 -9.348466 -1.113338 -0.240390 -3.145565 -5.755768 9.094912 60.803535 -59.798022 -104.401271 -3.933613 -7.750911 7.229149 -6.374178 -22.295066 -11.215677 -10.406429 78.726846 -11.769951 9.841989 -14.842062 3.760596 -0.000900 0.000329 -0.000399 4.404912 6.019723 -1.814234 128.912083 64.888201 147.238179 10.759288 11.136879 3.547870 -0.001257 -0.003105 -0.000557
-13.395117 126.911152 32.505086 -160.322155 -50.800550 -3.016334 -3.740868 27.022632 -0.397473 -0.619092 4.692276 0.060709 -0.977505 7.427923 0.070485 -2.986683 22.027839 -0.175106 -2.160098 15.214054 -4.825548 -1.189694 -9.665618 -4.635390 1.648920 2.623790 1.444834 2.290007 -9.739888 -10.119584 -92.601863 -68.640064 140.366504 14.257298 21.609869 7.554175 -9.356974 -1.155790 -0.237193 -3.212602 -5.756183 9.119377 60.506472 -59.665664 -104.212466 -3.798918 -7.233000 6.687245 -6.371145 -22.295885 -11.216375 -10.419862 78.727688 -11.777899 9.845224 -14.845779 3.752250 -0.001782 0.000177 -0.000789 4.407501 6.020679 -1.809217 128.914701 64.891568 147.243921 10.782554 11.168724 3.462809 -0.003165 0.009672 -0.001403
-13.395298 126.911222 32.505496 -160.323284 -50.801911 -3.011116 -3.740804 27.026564 -0.402612 -0.618911 4.691748 0.060170 -0.974885 7.427896 0.070599 -2.987550 22.027407 -0.176683 -2.062341 15.112545 -4.772940 -1.098086 -9.776828 -4.597420 1.658330 2.618138 1.436672 2.270194 -9.740728 -10.113414 -92.822954 -68.662460 140.559855 14.268353 21.366949 7.534900 -9.361651 -1.172144 -0.234383 -3.261447 -5.775031 9.136396 60.202444 -59.526864 -104.039635 -3.665031 -6.721675 6.155667 -6.362576 -22.301886 -11.220405 -10.445136 78.736560 -11.800788 9.846252 -14.849892 3.749983 -0.001759 -0.001583 -0.000779 4.408178 6.020434 -1.808992 128.921366 64.894310 147.249100 10.796623 11.182304 3.420005 -0.004855 0.018739 -0.002152
-13.396057 126.910548 32.506752 -160.310625 -50.797651 -3.011134 -3.748590 27.023620 -0.410534 -0.615452 4.692901 0.060323 -0.979300 7.427742 0.069939 -2.989735 22.025743 -0.176411 -1.966070 15.017517 -4.722085 -1.008963 -9.883727 -4.557987 1.679520 2.604500 1.410591 2.190466 -9.719742 -10.120540 -92.977153 -68.651876 140.731087 14.271231 21.149246 7.530396 -9.363525 -1.187411 -0.235125 -3.310809 -5.809079 9.159624 59.891592 -59.375614 -103.858040 -3.543471 -6.232578 5.658033 -6.365403 -22.310650 -11.230141 -10.456353 78.740781 -11.811569 9.850959 -14.856013 3.746031 -0.001292 -0.000095 -0.000573 4.395420 6.017283 -1.816569 128.918707 64.893065 147.238150 10.736722 11.107162 3.587419 0.000035 -0.002464 0.000015
